<svg width="256" height="61" viewBox="0 0 256 61" fill="none" xmlns="http://www.w3.org/2000/svg">
<g clip-path="url(#clip0)">
<path d="M80.0877 48.3048H76.063V46.1439C79.7259 46.1439 82.801 46.1439 86.464 46.1439V48.3048H82.4393V58.7491H80.0425V48.3048H80.0877Z" fill="black"/>
<path d="M103.151 58.7491H100.302L96.5937 54.5174H94.2874V58.7491H91.8906V46.1439C93.8804 46.1439 95.9154 46.1439 97.9051 46.1439C100.89 46.1439 102.473 48.1247 102.473 50.3306C102.473 52.0413 101.659 53.7971 99.2618 54.2923L103.106 58.614V58.7491H103.151ZM94.3326 48.3948V52.4465H97.9503C99.4879 52.4465 100.121 51.4561 100.121 50.4207C100.121 49.4303 99.4427 48.3948 97.9503 48.3948H94.3326Z" fill="black"/>
<path d="M117.124 56.4082H110.522L109.437 58.7941H106.859L112.557 46.189H115.18L120.878 58.7941H118.255L117.124 56.4082ZM113.823 48.8L111.471 54.1572H116.175L113.823 48.8Z" fill="black"/>
<path d="M136.253 57.1734C134.942 58.434 133.269 59.0642 131.46 59.0642C126.757 59.0642 124.767 55.8229 124.767 52.5816C124.767 49.2952 126.892 45.9188 131.46 45.9188C133.178 45.9188 134.806 46.5491 136.117 47.8546L134.535 49.3852C133.721 48.5749 132.59 48.2148 131.46 48.2148C128.385 48.2148 127.073 50.4657 127.118 52.5816C127.118 54.6524 128.339 56.8583 131.46 56.8583C132.545 56.8583 133.811 56.4081 134.625 55.5978L136.253 57.1734Z" fill="black"/>
<path d="M146.338 51.3661L149.684 46.1439H152.578V46.234L147.559 53.572V58.7941H145.162V53.572L140.278 46.279V46.1889H143.127L146.338 51.3661Z" fill="black"/>
<path d="M175.415 46.234L169.808 52.2664L175.912 58.614V58.7491H172.973L167.682 53.1668V58.7491H165.285V46.1439H167.682V51.4561L172.476 46.1439H175.46V46.234H175.415Z" fill="black"/>
<path d="M190.519 58.7491H181.022C181.022 54.5624 181.022 50.3306 181.022 46.1439H190.519V48.4399H183.419V51.321H190.293V53.527H183.419V56.3631H190.519V58.7491Z" fill="black"/>
<path d="M205.352 56.4082H198.749L197.664 58.7941H195.086L200.784 46.189H203.407L209.105 58.7941H206.482L205.352 56.4082ZM202.005 48.8L199.654 54.1572H204.357L202.005 48.8Z" fill="black"/>
<path d="M215.255 48.3048H211.23V46.1439C214.893 46.1439 217.969 46.1439 221.631 46.1439V48.3048H217.607V58.7491H215.255V48.3048Z" fill="black"/>
<path d="M239.539 52.5365C239.494 55.7779 237.505 59.0642 233.028 59.0642C228.596 59.0642 226.516 55.8679 226.516 52.5816C226.516 49.2502 228.641 45.9188 233.028 45.9188C237.414 45.9188 239.585 49.2502 239.539 52.5365ZM228.867 52.5816C228.912 54.6524 230.043 56.8583 233.028 56.8583C236.012 56.8583 237.143 54.6074 237.188 52.5365C237.233 50.4207 236.012 48.0347 233.028 48.0347C230.043 48.0797 228.822 50.4657 228.867 52.5816Z" fill="black"/>
<path d="M253.603 46.1439H256V58.7491H254.508L247.86 50.2406V58.7491H245.463V46.1439H247.408L253.603 53.9771V46.1439Z" fill="black"/>
<path d="M42.4632 50.9159V29.7572H52.0049V27.4613H33.5545H33.1475H30.5699C30.1176 28.2716 29.575 28.9919 28.8967 29.6672C27.0426 31.5129 24.5554 32.5484 21.9325 32.5484C19.3097 32.5484 16.8225 31.5129 14.9684 29.6672C13.1143 27.8214 12.0742 25.3454 12.0742 22.7343C12.0742 20.1233 13.1143 17.6473 14.9684 15.8015C16.8225 13.9557 19.3097 12.9203 21.9325 12.9203C24.5554 12.9203 27.0426 13.9557 28.8967 15.8015C29.8011 16.7019 30.5246 17.7823 31.0221 18.9978H33.5093C32.9214 17.1971 31.8813 15.5314 30.5246 14.1358C28.2183 11.8399 25.1433 10.5794 21.8873 10.5794C18.6313 10.5794 15.5563 11.8399 13.25 14.1358C10.9436 16.4318 9.67744 19.493 9.67744 22.7343C9.67744 25.9757 10.9436 29.0369 13.25 31.3329C15.5563 33.6288 18.6313 34.8893 21.8873 34.8893C25.1433 34.8893 28.2183 33.6288 30.5246 31.3329C30.9316 30.9277 31.3386 30.4325 31.7004 29.9373L31.7909 29.8473H40.1116V51.0059H42.4632V50.9159ZM59.0143 24.0399V27.4613H55.5775V29.7572H59.0143V33.1786H61.3206V29.7572H64.7575V27.4613H61.3206V24.0399H59.0143ZM60.0996 61C60.4162 61 60.6875 60.865 60.9136 60.6399C61.1397 60.4148 61.2302 60.1447 61.2302 59.8295V36.51H58.9239V58.7041H2.30631V2.29596H58.9691V20.7085H61.2754V1.1705C61.2754 0.855373 61.1397 0.585263 60.9588 0.36017C60.7327 0.135078 60.4614 0.0450412 60.1449 0.0450412H1.17576C0.859212 2.27056e-05 0.54266 0.135078 0.316552 0.315152C0.135665 0.540244 0 0.855373 0 1.1705V59.8746C0 60.1897 0.135665 60.4598 0.316552 60.6849C0.54266 60.91 0.81399 61.0451 1.13054 61.0451H60.0996V61Z" fill="black"/>
<path d="M87.5945 33.4488C86.283 34.7093 84.6098 35.3395 82.801 35.3395C78.0979 35.3395 76.1082 32.0982 76.1082 28.8569C76.1082 25.5705 78.2336 22.1942 82.801 22.1942C84.5194 22.1942 86.1474 22.8244 87.4588 24.1299L85.876 25.6606C85.062 24.8502 83.9315 24.4901 82.801 24.4901C79.7259 24.4901 78.4145 26.741 78.4597 28.8569C78.4597 30.9277 79.6807 33.1336 82.801 33.1336C83.8863 33.1336 85.1525 32.6835 85.9665 31.8731L87.5945 33.4488Z" fill="black"/>
<path d="M101.523 35.0694V29.9823H95.282V35.0694H92.8853V22.4642H95.282V27.7764H101.523V22.4642H103.874V35.0694H101.523Z" fill="black"/>
<path d="M121.375 35.0244H118.526L114.818 30.7927H112.512V35.0244H110.115V22.4193C112.105 22.4193 114.14 22.4193 116.129 22.4193C119.114 22.4193 120.697 24.4001 120.697 26.606C120.697 28.3167 119.883 30.0724 117.486 30.5676L121.33 34.8894V35.0244H121.375ZM112.512 24.6702V28.7218H116.129C117.667 28.7218 118.3 27.7314 118.3 26.696C118.3 25.7056 117.622 24.6702 116.129 24.6702H112.512Z" fill="black"/>
<path d="M126.349 35.0244V22.4193H128.701V35.0244H126.349Z" fill="black"/>
<path d="M143.082 25.4805C142.629 24.7602 141.454 24.0849 140.097 24.0849C138.333 24.0849 137.474 24.8052 137.474 25.7506C137.474 26.831 138.786 27.1462 140.278 27.3262C142.901 27.6414 145.388 28.3166 145.388 31.3329C145.388 34.124 142.901 35.3395 140.052 35.3395C137.474 35.3395 135.484 34.5292 134.535 32.2332L136.524 31.1978C137.067 32.5934 138.559 33.1786 140.097 33.1786C141.589 33.1786 142.991 32.6384 142.991 31.2879C142.991 30.1174 141.725 29.6222 140.052 29.4421C137.474 29.127 135.077 28.4517 135.077 25.6155C135.077 23.0045 137.655 21.969 139.961 21.924C141.951 21.924 143.986 22.4642 144.936 24.445L143.082 25.4805Z" fill="black"/>
<path d="M166.687 25.4805C166.235 24.7602 165.059 24.0849 163.703 24.0849C161.939 24.0849 161.08 24.8052 161.08 25.7506C161.08 26.831 162.391 27.1462 163.884 27.3262C166.506 27.6414 168.994 28.3166 168.994 31.3329C168.994 34.124 166.506 35.3395 163.657 35.3395C161.08 35.3395 159.09 34.5292 158.14 32.2332L160.13 31.1978C160.673 32.5934 162.165 33.1786 163.703 33.1786C165.195 33.1786 166.597 32.6384 166.597 31.2879C166.597 30.1174 165.331 29.6222 163.657 29.4421C161.08 29.127 158.683 28.4517 158.683 25.6155C158.683 23.0045 161.261 21.969 163.567 21.924C165.557 21.924 167.592 22.4642 168.541 24.445L166.687 25.4805Z" fill="black"/>
<path d="M188.484 35.0244H186.449L184.866 31.0628L183.51 27.1012L182.198 31.1078L180.661 35.0244H178.626L173.968 22.4193H176.636L179.621 31.513L182.696 22.4193H184.233L187.399 31.513L190.293 22.4193H192.961L188.484 35.0244Z" fill="black"/>
<path d="M198.478 35.0244V22.4193H200.83V35.0244H198.478Z" fill="black"/>
<path d="M218.104 25.9307L213.989 31.4229H213.537L209.512 25.9307V35.1144H207.115V22.5093H209.874L213.854 27.9115L217.833 22.5093H220.546V35.1144H218.15V25.9307H218.104Z" fill="black"/>
<path d="M244.378 31.3779C244.378 32.0982 244.695 32.7284 245.509 32.7284V35.1144C244.559 35.1144 243.519 34.8893 243.112 33.4487C242.298 34.7993 240.851 35.2044 239.494 35.2044C236.736 35.2044 234.475 34.3041 234.475 31.1978C234.475 30.1174 235.243 28.9469 236.419 28.5867C235.289 28.2266 234.701 27.0111 234.701 26.0207C234.701 23.3196 237.278 22.2391 239.539 22.2391C241.755 22.2391 244.152 23.0945 244.152 25.7956H241.891C241.891 24.6251 240.76 24.265 239.449 24.265C237.595 24.265 236.962 25.3004 237.007 26.0207C237.007 27.2812 238.59 27.6413 239.449 27.6413C241.439 27.6413 243.428 27.6413 245.373 27.6413V29.5321H244.333V31.3779H244.378ZM236.826 31.2428C236.826 32.5934 238.138 33.0886 239.449 33.0886C240.308 33.0886 242.072 32.6384 242.072 31.3779V29.5771C241.167 29.5771 240.263 29.5771 239.313 29.5771C237.595 29.5321 236.826 30.4775 236.826 31.2428Z" fill="black"/>
<path d="M79.1832 3.01624H75.7463V2.38599H83.3436V3.01624H79.9067V11.7948H79.1832V3.01624Z" fill="black"/>
<path d="M96.8648 6.7528H102.427V7.42808H96.8648V11.1646H102.879V11.8849H96.1865V2.43103H102.744V3.10631H96.9101V6.7528H96.8648Z" fill="black"/>
<path d="M123.41 11.8399L122.37 9.4989H116.717L115.677 11.8399H114.863L119.114 2.38599H119.928L124.179 11.8399H123.41ZM122.099 8.82362L119.566 3.06126L117.034 8.82362H122.099Z" fill="black"/>
<path d="M144.935 3.42141L141.318 8.95868H141.092L137.429 3.42141V11.8399H136.705V2.38599C137.067 2.38599 137.203 2.38599 137.564 2.38599L141.182 7.87824L144.8 2.38599H145.704V11.8399H144.981V3.42141H144.935Z" fill="black"/>
</g>
<defs>
<clipPath id="clip0">
<rect width="256" height="61" fill="white"/>
</clipPath>
</defs>
</svg>
