<svg width="383" height="267" viewBox="0 0 383 267" fill="none" xmlns="http://www.w3.org/2000/svg">
<path d="M94.7662 220.954C94.7662 216.478 91.5754 212.108 85.4066 212.108H72.9625V240.566H75.1961V229.801H82.9603L92.7453 240.566H95.6171L85.6193 229.695C91.7881 229.588 94.7662 225.538 94.7662 220.954ZM75.0897 227.669V214.026H85.4066C90.0864 214.026 92.4263 217.437 92.3199 220.848C92.3199 224.792 90.0864 227.669 85.0875 227.669H75.0897ZM219.313 141.334V82.6048H245.584V76.2096H194.744L193.68 76.103H186.554C185.278 78.3413 183.789 80.3665 181.981 82.1784C176.876 87.2946 169.962 90.1724 162.73 90.1724C155.497 90.1724 148.584 87.2946 143.479 82.1784C138.373 77.0623 135.502 70.1341 135.502 62.8862C135.502 55.6383 138.373 48.7102 143.479 43.594C148.584 38.4778 155.497 35.6 162.73 35.6C169.962 35.6 176.876 38.4778 181.981 43.594C184.533 46.1521 186.554 49.1365 187.937 52.5473H194.744C193.149 47.5377 190.277 42.8479 186.554 39.1174C180.173 32.7222 171.77 29.2048 162.836 29.2048C153.902 29.2048 145.393 32.7222 139.118 39.1174C132.736 45.5126 129.227 53.9329 129.227 62.8862C129.227 71.8395 132.736 80.3665 139.118 86.6551C145.5 93.0503 153.902 96.5676 162.836 96.5676C171.77 96.5676 180.279 93.0503 186.554 86.6551C187.724 85.4826 188.788 84.2036 189.851 82.8179L190.064 82.4982H212.931V141.228H219.313V141.334ZM108.061 262.95L104.551 257.62H103.7V266.787H104.445V258.58L107.955 263.909H108.167L111.677 258.58V266.787H112.422V257.62H111.571L108.061 262.95ZM132.417 224.792C127.631 223.939 123.696 223.086 123.696 219.462C123.696 214.879 129.014 213.707 132.311 213.707C135.502 213.707 138.905 214.24 140.926 217.544L142.734 216.478C139.969 212.321 136.353 211.681 132.311 211.681C127.631 211.681 121.356 213.6 121.462 219.569C121.462 224.792 126.78 225.857 131.992 226.923C136.672 227.776 141.352 228.735 141.352 232.999C141.352 238.008 135.821 239.074 132.311 239.074C128.801 239.074 124.334 237.369 122.632 233.851L120.718 234.811C122.951 239.181 127.95 240.993 132.417 240.993C137.204 240.993 143.585 239.394 143.691 232.999C143.585 226.817 137.842 225.857 132.417 224.792ZM108.38 240.566V212.108H106.253V240.566H108.38ZM14.6776 213.707C17.8684 213.707 21.0591 214.879 23.5054 217.331L24.9944 216.051C22.1227 213.174 18.4002 211.788 14.6776 211.788C4.89253 211.788 0 218.929 0 226.497C0 234.171 4.99889 240.886 14.6776 240.886C18.4002 240.886 22.2291 239.501 24.9944 236.623L23.5054 235.237C21.0591 237.689 17.8684 238.861 14.5712 238.861C6.38156 238.861 2.12719 233.105 2.02083 226.39C2.02083 219.569 6.38156 213.707 14.6776 213.707ZM34.9922 261.777C33.3968 261.457 32.2269 261.244 32.2269 260.072C32.2269 258.58 33.9286 258.26 34.9922 258.26C36.0558 258.26 37.1194 258.473 37.7576 259.539L38.2894 259.006C37.4385 257.62 36.2685 257.407 34.8859 257.407C33.3968 257.407 31.376 258.047 31.376 259.965C31.376 261.671 33.0778 261.99 34.7795 262.31C36.2685 262.63 37.7576 262.95 37.7576 264.229C37.7576 265.828 35.9495 266.147 34.8859 266.147C33.7159 266.147 32.3332 265.614 31.8014 264.442L31.1633 264.762C31.9078 266.147 33.5032 266.787 34.8859 266.787C36.3749 266.787 38.5021 266.254 38.5021 264.229C38.6084 262.417 36.694 262.097 34.9922 261.777ZM85.1938 266.787H85.9383V257.62H85.1938V266.787ZM264.835 66.7233V76.2096H255.369V82.6048H264.835V92.091H271.216V82.6048H280.682V76.2096H271.216V66.7233H264.835ZM64.6665 266.041L61.9011 257.62H61.4757L58.7104 266.041L55.8387 257.62H55.0941L58.2849 266.787H59.0294L60.5185 262.417L61.6884 258.793L62.8584 262.417L64.3474 266.68H65.0919L68.2827 257.514H67.5382L64.6665 266.041ZM57.434 240.566H59.6676V212.108H57.434V225.644H39.353V212.108H37.1194V240.566H39.353V227.669H57.434V240.566ZM267.919 169.26C268.77 169.26 269.621 168.94 270.153 168.301C270.791 167.661 271.11 166.915 271.11 166.062V101.257H264.728V162.865H108.593V6.39521H264.728V57.5569H271.11V3.1976C271.11 2.34491 270.791 1.49222 270.153 0.959281C269.515 0.31976 268.77 0 267.919 0H105.402C104.551 0 103.7 0.31976 103.169 0.959281C102.53 1.5988 102.211 2.34491 102.211 3.1976V166.062C102.211 166.915 102.53 167.768 103.169 168.301C103.807 168.94 104.551 169.26 105.402 169.26H267.919ZM338.754 257.407C335.67 257.407 334.181 259.645 334.181 262.097C334.181 264.548 335.776 266.893 338.754 266.893C341.839 266.893 343.328 264.548 343.328 262.204C343.434 259.752 341.839 257.407 338.754 257.407ZM338.754 266.254C336.096 266.254 334.819 264.229 334.819 262.204C334.819 260.072 336.096 258.153 338.754 258.153C341.413 258.153 342.69 260.072 342.69 262.204C342.69 264.229 341.413 266.254 338.754 266.254ZM339.818 213.707C343.009 213.707 346.2 214.879 348.646 217.331L350.135 216.051C347.263 213.174 343.541 211.788 339.818 211.788C330.033 211.788 325.141 218.929 325.141 226.497C325.141 234.171 330.139 240.886 339.818 240.886C343.541 240.886 347.37 239.501 350.135 236.623L348.646 235.237C346.2 237.689 343.009 238.861 339.712 238.861C331.522 238.861 327.268 233.105 327.161 226.39C327.268 219.569 331.522 213.707 339.818 213.707ZM310.144 258.26H313.441V266.787H314.185V258.26H317.483V257.62H310.144V258.26ZM302.592 212.001L289.829 240.46H292.169L295.254 233.425H312.271L315.355 240.46H317.695L304.932 212.001H302.592ZM296.104 231.507L303.762 214.133L311.42 231.507H296.104ZM193.893 233.105V226.923H196.446V225.218H184.427C181.024 225.218 176.344 223.832 176.344 219.569C176.344 216.371 178.896 213.813 184.321 213.813C188.15 213.813 191.553 214.559 191.553 219.036H193.468C193.468 213.174 188.894 212.001 184.321 212.001C177.833 212.001 174.217 215.199 174.217 219.569C174.217 222.766 176.45 225.218 179.428 226.177C176.557 227.136 173.685 229.588 173.685 233.105C173.685 238.008 177.301 240.993 184.214 240.993C187.299 240.993 190.49 240.353 192.617 237.049C193.255 239.501 195.063 240.993 197.403 240.673V238.968C194.638 238.861 193.893 236.09 193.893 233.105ZM192.191 233.105C192.191 237.902 187.618 238.968 184.321 238.968C178.577 238.968 175.918 236.623 175.918 232.892C175.918 229.908 178.79 226.817 184.321 226.817H192.085V233.105H192.191ZM367.259 265.188L361.09 257.62H360.771V266.787H361.515V259.219L367.684 266.787H368.003V257.62H367.259V265.188ZM380.447 212.001L370.769 227.03L361.09 212.001H358.537L369.599 229.055V240.46H371.832V229.162L383 212.108H380.447V212.001ZM290.574 257.62L286.426 266.787H287.17L288.127 264.548H293.552L294.509 266.787H295.254L291.106 257.62H290.574ZM288.447 263.909L290.893 258.366L293.339 263.909H288.447ZM246.541 257.62L245.69 257.514L241.223 261.671V257.514H240.478V266.68H241.223V262.204L246.009 266.68H246.86L241.861 261.99L246.541 257.62ZM225.482 214.026H235.799V240.566H238.032V214.026H248.349V212.108H225.482V214.026ZM264.303 262.523H269.621V261.884H264.303V258.366H269.94V257.727H263.665V266.893H270.153V266.254H264.409V262.523H264.303ZM281.32 220.954C281.32 216.478 278.13 212.108 271.961 212.108H259.41V240.566H261.644V229.801H269.408L279.193 240.566H282.065L272.067 229.695C278.342 229.588 281.32 225.538 281.32 220.954ZM261.644 227.669V214.026H271.961C276.641 214.026 278.981 217.437 278.874 220.848C278.874 224.792 276.641 227.669 271.642 227.669H261.644Z" fill="white"/>
<path d="M94.7662 220.954C94.7662 216.478 91.5754 212.108 85.4066 212.108H72.9625V240.566H75.1961V229.801H82.9603L92.7453 240.566H95.6171L85.6193 229.695C91.7881 229.588 94.7662 225.538 94.7662 220.954ZM75.0897 227.669V214.026H85.4066C90.0864 214.026 92.4263 217.437 92.3199 220.848C92.3199 224.792 90.0864 227.669 85.0875 227.669H75.0897ZM219.313 141.334V82.6048H245.584V76.2096H194.744L193.68 76.103H186.554C185.278 78.3413 183.789 80.3665 181.981 82.1784C176.876 87.2946 169.962 90.1724 162.73 90.1724C155.497 90.1724 148.584 87.2946 143.479 82.1784C138.373 77.0623 135.502 70.1341 135.502 62.8862C135.502 55.6383 138.373 48.7102 143.479 43.594C148.584 38.4778 155.497 35.6 162.73 35.6C169.962 35.6 176.876 38.4778 181.981 43.594C184.533 46.1521 186.554 49.1365 187.937 52.5473H194.744C193.149 47.5377 190.277 42.8479 186.554 39.1174C180.173 32.7222 171.77 29.2048 162.836 29.2048C153.902 29.2048 145.393 32.7222 139.118 39.1174C132.736 45.5126 129.227 53.9329 129.227 62.8862C129.227 71.8395 132.736 80.3665 139.118 86.6551C145.5 93.0503 153.902 96.5676 162.836 96.5676C171.77 96.5676 180.279 93.0503 186.554 86.6551C187.724 85.4826 188.788 84.2036 189.851 82.8179L190.064 82.4982H212.931V141.228H219.313V141.334ZM108.061 262.95L104.551 257.62H103.7V266.787H104.445V258.58L107.955 263.909H108.167L111.677 258.58V266.787H112.422V257.62H111.571L108.061 262.95ZM132.417 224.792C127.631 223.939 123.696 223.086 123.696 219.462C123.696 214.879 129.014 213.707 132.311 213.707C135.502 213.707 138.905 214.24 140.926 217.544L142.734 216.478C139.969 212.321 136.353 211.681 132.311 211.681C127.631 211.681 121.356 213.6 121.462 219.569C121.462 224.792 126.78 225.857 131.992 226.923C136.672 227.776 141.352 228.735 141.352 232.999C141.352 238.008 135.821 239.074 132.311 239.074C128.801 239.074 124.334 237.369 122.632 233.851L120.718 234.811C122.951 239.181 127.95 240.993 132.417 240.993C137.204 240.993 143.585 239.394 143.691 232.999C143.585 226.817 137.842 225.857 132.417 224.792ZM108.38 240.566V212.108H106.253V240.566H108.38ZM14.6776 213.707C17.8684 213.707 21.0591 214.879 23.5054 217.331L24.9944 216.051C22.1227 213.174 18.4002 211.788 14.6776 211.788C4.89253 211.788 0 218.929 0 226.497C0 234.171 4.99889 240.886 14.6776 240.886C18.4002 240.886 22.2291 239.501 24.9944 236.623L23.5054 235.237C21.0591 237.689 17.8684 238.861 14.5712 238.861C6.38156 238.861 2.12719 233.105 2.02083 226.39C2.02083 219.569 6.38156 213.707 14.6776 213.707ZM34.9922 261.777C33.3968 261.457 32.2269 261.244 32.2269 260.072C32.2269 258.58 33.9286 258.26 34.9922 258.26C36.0558 258.26 37.1194 258.473 37.7576 259.539L38.2894 259.006C37.4385 257.62 36.2685 257.407 34.8859 257.407C33.3968 257.407 31.376 258.047 31.376 259.965C31.376 261.671 33.0778 261.99 34.7795 262.31C36.2685 262.63 37.7576 262.95 37.7576 264.229C37.7576 265.828 35.9495 266.147 34.8859 266.147C33.7159 266.147 32.3332 265.614 31.8014 264.442L31.1633 264.762C31.9078 266.147 33.5032 266.787 34.8859 266.787C36.3749 266.787 38.5021 266.254 38.5021 264.229C38.6084 262.417 36.694 262.097 34.9922 261.777ZM85.1938 266.787H85.9383V257.62H85.1938V266.787ZM264.835 66.7233V76.2096H255.369V82.6048H264.835V92.091H271.216V82.6048H280.682V76.2096H271.216V66.7233H264.835ZM64.6665 266.041L61.9011 257.62H61.4757L58.7104 266.041L55.8387 257.62H55.0941L58.2849 266.787H59.0294L60.5185 262.417L61.6884 258.793L62.8584 262.417L64.3474 266.68H65.0919L68.2827 257.514H67.5382L64.6665 266.041ZM57.434 240.566H59.6676V212.108H57.434V225.644H39.353V212.108H37.1194V240.566H39.353V227.669H57.434V240.566ZM267.919 169.26C268.77 169.26 269.621 168.94 270.153 168.301C270.791 167.661 271.11 166.915 271.11 166.062V101.257H264.728V162.865H108.593V6.39521H264.728V57.5569H271.11V3.1976C271.11 2.34491 270.791 1.49222 270.153 0.959281C269.515 0.31976 268.77 0 267.919 0H105.402C104.551 0 103.7 0.31976 103.169 0.959281C102.53 1.5988 102.211 2.34491 102.211 3.1976V166.062C102.211 166.915 102.53 167.768 103.169 168.301C103.807 168.94 104.551 169.26 105.402 169.26H267.919ZM338.754 257.407C335.67 257.407 334.181 259.645 334.181 262.097C334.181 264.548 335.776 266.893 338.754 266.893C341.839 266.893 343.328 264.548 343.328 262.204C343.434 259.752 341.839 257.407 338.754 257.407ZM338.754 266.254C336.096 266.254 334.819 264.229 334.819 262.204C334.819 260.072 336.096 258.153 338.754 258.153C341.413 258.153 342.69 260.072 342.69 262.204C342.69 264.229 341.413 266.254 338.754 266.254ZM339.818 213.707C343.009 213.707 346.2 214.879 348.646 217.331L350.135 216.051C347.263 213.174 343.541 211.788 339.818 211.788C330.033 211.788 325.141 218.929 325.141 226.497C325.141 234.171 330.139 240.886 339.818 240.886C343.541 240.886 347.37 239.501 350.135 236.623L348.646 235.237C346.2 237.689 343.009 238.861 339.712 238.861C331.522 238.861 327.268 233.105 327.161 226.39C327.268 219.569 331.522 213.707 339.818 213.707ZM310.144 258.26H313.441V266.787H314.185V258.26H317.483V257.62H310.144V258.26ZM302.592 212.001L289.829 240.46H292.169L295.254 233.425H312.271L315.355 240.46H317.695L304.932 212.001H302.592ZM296.104 231.507L303.762 214.133L311.42 231.507H296.104ZM193.893 233.105V226.923H196.446V225.218H184.427C181.024 225.218 176.344 223.832 176.344 219.569C176.344 216.371 178.896 213.813 184.321 213.813C188.15 213.813 191.553 214.559 191.553 219.036H193.468C193.468 213.174 188.894 212.001 184.321 212.001C177.833 212.001 174.217 215.199 174.217 219.569C174.217 222.766 176.45 225.218 179.428 226.177C176.557 227.136 173.685 229.588 173.685 233.105C173.685 238.008 177.301 240.993 184.214 240.993C187.299 240.993 190.49 240.353 192.617 237.049C193.255 239.501 195.063 240.993 197.403 240.673V238.968C194.638 238.861 193.893 236.09 193.893 233.105ZM192.191 233.105C192.191 237.902 187.618 238.968 184.321 238.968C178.577 238.968 175.918 236.623 175.918 232.892C175.918 229.908 178.79 226.817 184.321 226.817H192.085V233.105H192.191ZM367.259 265.188L361.09 257.62H360.771V266.787H361.515V259.219L367.684 266.787H368.003V257.62H367.259V265.188ZM380.447 212.001L370.769 227.03L361.09 212.001H358.537L369.599 229.055V240.46H371.832V229.162L383 212.108H380.447V212.001ZM290.574 257.62L286.426 266.787H287.17L288.127 264.548H293.552L294.509 266.787H295.254L291.106 257.62H290.574ZM288.447 263.909L290.893 258.366L293.339 263.909H288.447ZM246.541 257.62L245.69 257.514L241.223 261.671V257.514H240.478V266.68H241.223V262.204L246.009 266.68H246.86L241.861 261.99L246.541 257.62ZM225.482 214.026H235.799V240.566H238.032V214.026H248.349V212.108H225.482V214.026ZM264.303 262.523H269.621V261.884H264.303V258.366H269.94V257.727H263.665V266.893H270.153V266.254H264.409V262.523H264.303ZM281.32 220.954C281.32 216.478 278.13 212.108 271.961 212.108H259.41V240.566H261.644V229.801H269.408L279.193 240.566H282.065L272.067 229.695C278.342 229.588 281.32 225.538 281.32 220.954ZM261.644 227.669V214.026H271.961C276.641 214.026 278.981 217.437 278.874 220.848C278.874 224.792 276.641 227.669 271.642 227.669H261.644Z" fill="white"/>
</svg>
