<svg width="36" height="36" viewBox="0 0 36 36" fill="none" xmlns="http://www.w3.org/2000/svg">
<path d="M10.5376 13.9126V22.0876L14.6251 18.0001L10.5376 13.9126Z" fill="#1A1B1D"/>
<path d="M20.4524 20.0401C19.9274 20.5651 19.2449 20.8201 18.5624 20.8201C17.8799 20.8201 17.1899 20.5576 16.6724 20.0401L15.8849 19.2526L11.7974 23.3401H25.3274L21.2399 19.2526L20.4524 20.0401Z" fill="#1A1B1D"/>
<path d="M19.1924 18.78L25.3199 12.6525H11.7974L17.9249 18.78C18.2774 19.1325 18.8474 19.1325 19.1924 18.78Z" fill="#1A1B1D"/>
<path d="M18 0C8.0625 0 0 8.0625 0 18C0 27.9375 8.0625 36 18 36C27.9375 36 36 27.9375 36 18C36 8.0625 27.9375 0 18 0ZM28.365 22.455C28.365 23.9325 27.165 25.1325 25.6875 25.1325H11.43C9.9525 25.1325 8.7525 23.9325 8.7525 22.455V13.545C8.7525 12.0675 9.96 10.8675 11.43 10.8675H25.6875C27.165 10.8675 28.365 12.075 28.365 13.545V22.455Z" fill="#1A1B1D"/>
<path d="M26.58 22.0876V13.9126L22.5 18.0001L26.58 22.0876Z" fill="#1A1B1D"/>
</svg>
