<svg width="36" height="36" viewBox="0 0 36 36" fill="none" xmlns="http://www.w3.org/2000/svg">
<path fill-rule="evenodd" clip-rule="evenodd" d="M18 0C8.05887 0 0 8.05887 0 18C0 27.9411 8.05887 36 18 36C27.9411 36 36 27.9411 36 18C36 8.05887 27.9411 0 18 0ZM8.64111 14.9084H12.7203V27.1647H8.64111V14.9084ZM12.989 11.117C12.9625 9.9153 12.1031 9 10.7077 9C9.31221 9 8.3999 9.9153 8.3999 11.117C8.3999 12.2939 9.28525 13.2355 10.6547 13.2355H10.6808C12.1031 13.2355 12.989 12.2939 12.989 11.117ZM22.735 14.6206C25.4193 14.6206 27.4317 16.3727 27.4317 20.1373L27.4316 27.1647H23.3525V20.6076C23.3525 18.9606 22.7623 17.8367 21.2856 17.8367C20.1586 17.8367 19.4873 18.5943 19.1925 19.3261C19.0847 19.5884 19.0582 19.9538 19.0582 20.3201V27.165H14.9785C14.9785 27.165 15.0323 16.0588 14.9785 14.9087H19.0582V16.6447C19.5996 15.8102 20.5693 14.6206 22.735 14.6206Z" fill="#1A1B1D"/>
</svg>
