<svg width="36" height="36" viewBox="0 0 36 36" fill="none" xmlns="http://www.w3.org/2000/svg">
<path d="M30.7255 5.26979C23.6951 -1.75857 12.298 -1.75689 5.26967 5.27366C-1.7587 12.3042 -1.75701 23.7012 5.27354 30.7295C12.3041 37.7579 23.701 37.7562 30.7294 30.7257C34.1048 27.3492 36.0006 22.7701 35.9995 17.9958C35.9986 13.2223 34.1015 8.64465 30.7255 5.26979ZM27.2599 25.0735C27.2591 25.0742 27.2584 25.0751 27.2575 25.0758V25.0699L26.3455 25.9758C25.166 27.1702 23.4482 27.6617 21.8155 27.2718C20.1705 26.8315 18.6068 26.1307 17.1835 25.1959C15.8612 24.3508 14.6358 23.3629 13.5295 22.2498C12.5116 21.2394 11.5971 20.1298 10.7995 18.9378C9.92703 17.6552 9.23649 16.2579 8.74747 14.7858C8.18687 13.0564 8.65142 11.1587 9.94749 9.88384L11.0155 8.81586C11.3124 8.5176 11.7949 8.51654 12.0931 8.81347C12.0939 8.81425 12.0947 8.81502 12.0955 8.81586L15.4674 12.1878C15.7657 12.4848 15.7668 12.9673 15.4698 13.2655C15.4691 13.2662 15.4683 13.267 15.4674 13.2678L13.4874 15.2478C12.9193 15.8098 12.8479 16.7027 13.3195 17.3479C14.0356 18.3307 14.8281 19.2555 15.6895 20.1139C16.6499 21.0784 17.694 21.9559 18.8095 22.7359C19.454 23.1855 20.3279 23.1097 20.8854 22.5559L22.7994 20.6119C23.0964 20.3136 23.5788 20.3126 23.877 20.6095C23.8778 20.6103 23.8786 20.6111 23.8794 20.6119L27.2574 23.9959C27.5558 24.2928 27.5568 24.7752 27.2599 25.0735Z" fill="#1A1B1D"/>
</svg>
